<svg width="414" height="490" viewBox="0 0 414 490" fill="none" xmlns="http://www.w3.org/2000/svg">
<path d="M195.01 36.1696C199.311 36.1696 202.798 32.6541 202.798 28.3175C202.798 23.9809 199.311 20.4653 195.01 20.4653C190.709 20.4653 187.223 23.9809 187.223 28.3175C187.223 32.6541 190.709 36.1696 195.01 36.1696Z" fill="#FAFF00"/>
<path d="M168.108 36.1696C172.409 36.1696 175.896 32.6541 175.896 28.3175C175.896 23.9809 172.409 20.4653 168.108 20.4653C163.807 20.4653 160.32 23.9809 160.32 28.3175C160.32 32.6541 163.807 36.1696 168.108 36.1696Z" fill="#FAFF00" fill-opacity="0.63"/>
<path d="M141.206 36.1696C145.507 36.1696 148.993 32.6541 148.993 28.3175C148.993 23.9809 145.507 20.4653 141.206 20.4653C136.905 20.4653 133.418 23.9809 133.418 28.3175C133.418 32.6541 136.905 36.1696 141.206 36.1696Z" fill="#FAFF00" fill-opacity="0.16"/>
<path d="M146.266 480.011L155.357 480.01L159.682 445.422L146.264 445.423L146.266 480.011Z" fill="#FFB6B6"/>
<path d="M145.946 489.366L173.903 489.365V489.016C173.903 486.169 172.756 483.44 170.716 481.427C168.675 479.414 165.907 478.283 163.021 478.283H163.021L157.914 474.462L148.386 478.284L145.945 478.284L145.946 489.366Z" fill="#2F2E41"/>
<path d="M93.7108 480.011L102.802 480.01L107.127 445.422L93.709 445.423L93.7108 480.011Z" fill="#FFB6B6"/>
<path d="M93.3904 489.366L121.348 489.365V489.016C121.348 486.169 120.201 483.44 118.161 481.427C116.12 479.414 113.352 478.283 110.466 478.283H110.465L105.359 474.462L95.8305 478.284L93.39 478.284L93.3904 489.366Z" fill="black"/>
<path d="M207.506 250.362L176.53 221.71L184.92 207.848L215.469 242.306C217.282 242.126 219.107 242.501 220.697 243.379C222.287 244.257 223.564 245.597 224.355 247.216C225.146 248.835 225.413 250.654 225.119 252.428C224.826 254.202 223.986 255.843 222.714 257.13C221.442 258.417 219.8 259.286 218.01 259.621C216.219 259.955 214.368 259.738 212.707 258.999C211.047 258.26 209.656 257.035 208.726 255.489C207.795 253.944 207.369 252.154 207.506 250.362V250.362Z" fill="#FFB6B6"/>
<path d="M131.659 159.085H93.811L87.4459 175.046L88.9818 301.242C88.9818 301.242 163.969 301.242 169.096 296.185L153.073 241.188L147.305 171.02L131.659 159.085Z" fill="#FF8000"/>
<path d="M152.432 170.388L179.351 198.835L188.964 205.156L191.528 213.374L180.632 231.706L168.455 227.281L164.61 213.374L142.013 195.153L139.614 165.963L152.432 170.388Z" fill="#F9F9F9"/>
<path d="M128.131 159.988L132.56 178.638L138.653 245.297L146.985 295.869H171.022L156.598 240.872L150.83 170.072L131.603 158.694L128.131 159.988Z" fill="#F9F9F9"/>
<path d="M97.2604 159.988L104.043 181.45L114.939 252.251L98.275 302.822L82.0961 303.071L77.886 287.383L87.3794 247.193L74.5608 170.072L93.7883 158.694L97.2604 159.988Z" fill="#F9F9F9"/>
<path d="M111.265 152.764C123.935 152.764 134.206 142.634 134.206 130.137C134.206 117.64 123.935 107.51 111.265 107.51C98.595 107.51 88.3239 117.64 88.3239 130.137C88.3239 142.634 98.595 152.764 111.265 152.764Z" fill="#FFB6B6"/>
<path d="M98.0302 141.338C98.0302 141.338 96.9283 142.987 99.0557 149.981L89.3022 142.257L88.2354 133.776C88.2354 133.776 83.2714 116.29 100.291 107.896C100.291 107.896 115.183 100.203 129.366 111.394C129.366 111.394 135.039 112.093 134.33 112.792C133.621 113.492 130.075 115.59 133.62 114.891C137.166 114.191 139.294 110.694 139.294 112.792C139.294 114.891 132.911 119.787 132.911 119.787C132.911 119.787 135.393 126.432 118.374 117.339C116.553 121.828 113.046 125.45 108.584 127.45L109.13 127.976L104.9 136.923C104.9 136.923 100.512 131.196 98.0302 141.338Z" fill="#2F2E41"/>
<path d="M69.0429 183.583C67.7311 197.86 70.4482 210.395 75.3214 221.999L75.9473 232.32L80.9573 239.356L102.321 242.107L106.243 229.906L97.4624 218.382L96.7241 189.605L74.8159 169.837L69.0429 183.583Z" fill="#F9F9F9"/>
<path d="M48.885 474.987C48.4661 475.006 48.0514 474.897 47.6972 474.676C47.3429 474.455 47.0661 474.132 46.9044 473.75C46.7426 473.368 46.7037 472.947 46.7929 472.543C46.882 472.139 47.095 471.772 47.4029 471.491L47.543 470.941C47.5245 470.897 47.506 470.853 47.4873 470.809C47.0654 469.826 46.3583 468.988 45.4549 468.4C44.5515 467.812 43.4921 467.501 42.4098 467.505C41.3275 467.509 40.2705 467.828 39.3715 468.423C38.4726 469.017 37.7719 469.86 37.3573 470.847C35.7005 474.782 33.5911 478.725 33.0717 482.886C32.843 484.726 32.9395 486.59 33.3569 488.397C29.4655 480.025 27.4448 470.925 27.4318 461.715C27.431 459.403 27.5612 457.094 27.8218 454.797C28.0371 452.914 28.3359 451.045 28.7181 449.188C30.8038 439.117 35.282 429.678 41.7847 421.645C44.932 419.951 47.4773 417.346 49.0776 414.182C49.6573 413.044 50.067 411.83 50.294 410.577C49.939 410.623 48.9553 405.29 49.2231 404.962C48.7283 404.222 47.8428 403.854 47.3024 403.131C44.6149 399.537 40.9123 400.165 38.9793 405.049C34.8501 407.104 34.8102 410.513 37.3438 413.792C38.9557 415.877 39.1772 418.7 40.5915 420.933C40.446 421.117 40.2947 421.295 40.1492 421.478C37.4893 424.852 35.171 428.474 33.2276 432.294C33.7002 428.015 33.1361 423.686 31.5817 419.664C30.0064 415.916 27.0536 412.759 24.4533 409.519C23.7656 408.648 22.8316 407.998 21.7695 407.651C20.7074 407.304 19.5648 407.275 18.4862 407.569C17.4076 407.862 16.4413 408.464 15.7095 409.299C14.9778 410.134 14.5134 411.164 14.375 412.259C14.3697 412.307 14.3645 412.355 14.3595 412.402C14.7457 412.617 15.1237 412.845 15.4936 413.087C15.9583 413.393 16.3184 413.83 16.5267 414.342C16.735 414.854 16.7817 415.415 16.6608 415.953C16.5399 416.492 16.257 416.981 15.8492 417.358C15.4413 417.735 14.9276 417.982 14.3752 418.065L14.3186 418.074C14.4562 419.447 14.6994 420.808 15.0462 422.144C11.7104 434.868 18.9121 439.502 29.1953 439.711C29.4223 439.825 29.6435 439.94 29.8705 440.049C27.9179 445.507 26.6932 451.192 26.227 456.961C25.9631 460.365 25.9787 463.784 26.2736 467.185L26.2561 467.065C25.511 463.283 23.4655 459.87 20.4649 457.403C16.0082 453.793 9.71177 452.463 4.90383 449.56C4.39286 449.237 3.79873 449.064 3.19151 449.063C2.58428 449.061 1.9893 449.231 1.47673 449.552C0.964158 449.873 0.555386 450.332 0.298625 450.875C0.0418634 451.418 -0.0521776 452.022 0.027594 452.615L0.0472568 452.742C0.763986 453.03 1.46183 453.362 2.13674 453.735C2.52295 453.95 2.90102 454.178 3.27093 454.419C3.73564 454.726 4.09572 455.163 4.304 455.675C4.51227 456.186 4.55903 456.748 4.43814 457.286C4.31725 457.824 4.03435 458.314 3.62652 458.691C3.21868 459.068 2.70492 459.314 2.15256 459.398L2.09595 459.407C2.05523 459.413 2.02026 459.418 1.97961 459.424C3.20422 462.308 4.92301 464.963 7.0607 467.272C9.1465 478.379 18.105 479.433 27.6879 476.198H27.6937C28.7451 480.705 30.2686 485.091 32.2394 489.287H48.478C48.5363 489.109 48.5886 488.925 48.6411 488.747C47.138 488.841 45.629 488.752 44.1477 488.483C45.3525 487.025 46.5574 485.556 47.7622 484.098C47.7891 484.07 47.8143 484.041 47.8379 484.011C48.449 483.265 49.066 482.525 49.6771 481.778L49.6774 481.777C49.71 479.49 49.4438 477.208 48.8855 474.987L48.885 474.987Z" fill="#008E1F" fill-opacity="0.71"/>
<path d="M326.668 0H36.9615C34.2705 0.00610461 31.6907 2.02283 29.7879 5.60782C27.885 9.19281 26.8146 14.0533 26.8114 19.1233V351.712C26.8146 356.782 27.885 361.642 29.7879 365.227C31.6907 368.812 34.2705 370.829 36.9615 370.835H326.668C329.359 370.829 331.939 368.812 333.841 365.227C335.744 361.642 336.815 356.782 336.818 351.712V19.1233C336.815 14.0533 335.744 9.19281 333.841 5.60782C331.939 2.02284 329.359 0.00610684 326.668 0V0ZM335.923 351.712C335.923 354.002 335.684 356.269 335.219 358.385C334.753 360.5 334.072 362.423 333.212 364.042C332.353 365.661 331.333 366.946 330.21 367.822C329.087 368.698 327.883 369.149 326.668 369.149H36.9615C34.5068 369.149 32.1526 367.312 30.4169 364.042C28.6812 360.772 27.7061 356.336 27.7061 351.712V132.89C27.7061 115.66 29.5073 98.5987 33.0071 82.6802C36.5068 66.7618 41.6364 52.2979 48.1031 40.1145C54.5698 27.931 62.2468 18.2666 70.6959 11.6729C79.145 5.07931 88.2007 1.68561 97.3459 1.68561H326.668C327.883 1.68561 329.087 2.13665 330.21 3.01298C331.333 3.8893 332.353 5.17375 333.212 6.79299C334.072 8.41222 334.753 10.3345 335.219 12.4502C335.684 14.5658 335.923 16.8333 335.923 19.1233V351.712Z" fill="white"/>
<path d="M251 489C251 489.131 250.971 489.262 250.912 489.383C250.853 489.505 250.767 489.615 250.659 489.708C250.55 489.801 250.421 489.875 250.279 489.925C250.137 489.975 249.985 490 249.832 490H1.16826C0.858421 490 0.561268 489.895 0.342176 489.707C0.123085 489.52 0 489.265 0 489C0 488.735 0.123085 488.48 0.342176 488.293C0.561268 488.105 0.858421 488 1.16826 488H249.832C249.985 488 250.137 488.025 250.279 488.075C250.421 488.125 250.55 488.199 250.659 488.292C250.767 488.385 250.853 488.495 250.912 488.617C250.971 488.738 251 488.869 251 489Z" fill="black"/>
<path d="M391.239 253.448H283.235C282.113 253.446 281.039 252.626 280.246 251.169C279.453 249.711 279.007 247.735 279.006 245.674V181.187C279.007 179.125 279.453 177.149 280.246 175.692C281.039 174.234 282.113 173.414 283.235 173.412H391.239C392.36 173.414 393.435 174.234 394.228 175.692C395.02 177.149 395.466 179.125 395.468 181.187V245.674C395.466 247.735 395.02 249.711 394.228 251.169C393.435 252.626 392.36 253.446 391.239 253.448V253.448Z" fill="#FFEBB6"/>
<path d="M406.035 176.153L265.504 150.92C264.201 150.686 263.063 149.768 262.338 148.37C261.614 146.971 261.363 145.206 261.641 143.461C261.919 141.717 262.703 140.138 263.821 139.07C264.938 138.002 266.298 137.533 267.6 137.767L408.132 163.001C409.434 163.234 410.573 164.152 411.297 165.55C412.022 166.949 412.272 168.715 411.994 170.459C411.716 172.203 410.932 173.783 409.815 174.851C408.697 175.918 407.338 176.387 406.035 176.153V176.153Z" fill="#FFEBB6"/>
<path d="M387.711 152.391L280.497 132.03C278.728 131.694 277.148 130.679 276.105 129.207C275.062 127.736 274.642 125.929 274.936 124.184C275.23 122.439 276.215 120.899 277.674 119.903C279.133 118.906 280.947 118.535 282.716 118.871L389.929 139.232C391.698 139.568 393.278 140.584 394.321 142.055C395.364 143.527 395.784 145.334 395.49 147.079C395.196 148.824 394.211 150.364 392.752 151.36C391.293 152.356 389.48 152.727 387.711 152.391Z" fill="#FFEBB6"/>
<path d="M82.8892 292.13C82.8892 292.13 79.0437 326.265 87.3756 358.505L84.2375 374.089L91.2211 463.441H108.173L120.062 316.151L142.257 463.441H160.062L157.876 382.526L165.583 304.772L162.363 287.072L82.8892 292.13Z" fill="black"/>
<path d="M99.8308 317.903L176.907 146.492C177.709 144.713 179.194 143.321 181.035 142.621C182.877 141.921 184.924 141.97 186.729 142.757L243.17 167.446C244.973 168.237 246.385 169.701 247.095 171.518C247.805 173.334 247.755 175.354 246.957 177.134L169.881 348.546C169.079 350.324 167.594 351.716 165.753 352.416C163.911 353.117 161.863 353.068 160.058 352.281L103.618 327.591C101.814 326.8 100.403 325.336 99.6932 323.52C98.9833 321.704 99.0328 319.684 99.8308 317.903Z" fill="#F9F9F9"/>
<path d="M99.8308 317.903L176.907 146.492C177.709 144.713 179.194 143.321 181.035 142.621C182.877 141.921 184.924 141.97 186.729 142.757L243.17 167.446C244.973 168.237 246.385 169.701 247.095 171.518C247.805 173.334 247.755 175.354 246.957 177.134L169.881 348.546C169.079 350.324 167.594 351.716 165.753 352.416C163.911 353.117 161.863 353.068 160.058 352.281L103.618 327.591C101.814 326.8 100.403 325.336 99.6932 323.52C98.9833 321.704 99.0328 319.684 99.8308 317.903ZM245.76 176.61C246.417 175.143 246.458 173.479 245.873 171.982C245.288 170.486 244.125 169.279 242.639 168.627L186.198 143.938C184.711 143.289 183.023 143.249 181.506 143.826C179.989 144.403 178.765 145.55 178.104 147.015L101.028 318.427C100.371 319.894 100.33 321.559 100.915 323.055C101.5 324.552 102.663 325.758 104.149 326.41L160.59 351.1C162.077 351.748 163.764 351.788 165.282 351.211C166.799 350.634 168.023 349.487 168.683 348.022L245.76 176.61Z" fill="#3F3D56"/>
<path d="M184.082 247.815C200.011 247.815 212.923 235.079 212.923 219.368C212.923 203.658 200.011 190.922 184.082 190.922C168.154 190.922 155.241 203.658 155.241 219.368C155.241 235.079 168.154 247.815 184.082 247.815Z" fill="#FFEBB6"/>
<path d="M170.051 279.019C185.98 279.019 198.892 266.283 198.892 250.573C198.892 234.862 185.98 222.126 170.051 222.126C154.122 222.126 141.21 234.862 141.21 250.573C141.21 266.283 154.122 279.019 170.051 279.019Z" fill="#FFEBB6" fill-opacity="0.63"/>
<path d="M144.327 307.781C140.865 306.267 137.739 304.095 135.128 301.389C132.517 298.683 130.471 295.496 129.109 292.01C127.747 288.525 127.094 284.808 127.187 281.074C127.281 277.339 128.119 273.66 129.655 270.245C131.191 266.83 133.393 263.747 136.137 261.171C138.88 258.596 142.111 256.579 145.645 255.235C149.179 253.891 152.947 253.247 156.733 253.34C160.519 253.432 164.25 254.259 167.712 255.774C182.273 262.143 198.24 294.811 182.384 293.31C164.227 291.591 158.888 314.151 144.327 307.781Z" fill="#FFEBB6" fill-opacity="0.57"/>
<path d="M105.534 290.906L82.9974 235.522L101.02 239.077L116.061 286.57C117.8 287.105 119.331 288.155 120.445 289.577C121.558 290.999 122.201 292.725 122.286 294.52C122.372 296.315 121.894 298.093 120.92 299.611C119.946 301.13 118.521 302.316 116.84 303.008C115.158 303.701 113.302 303.867 111.522 303.482C109.742 303.098 108.125 302.183 106.89 300.862C105.656 299.54 104.863 297.876 104.621 296.095C104.378 294.314 104.697 292.502 105.534 290.906L105.534 290.906Z" fill="#FFB6B6"/>
</svg>
