<svg width="412" height="489" viewBox="0 0 412 489" fill="none" xmlns="http://www.w3.org/2000/svg">
<path d="M185.458 476.574C252.909 476.574 307.577 474.289 307.577 471.455C307.577 468.62 252.909 466.335 185.458 466.335C118.007 466.335 63.3401 468.62 63.3401 471.455C63.3401 474.289 118.007 476.574 185.458 476.574Z" fill="#BBBBBB"/>
<path d="M128.529 242.341C152.658 242.341 172.226 219.335 172.226 190.946C172.226 162.579 152.658 139.573 128.529 139.573C104.401 139.573 84.8332 162.579 84.8332 190.946C84.8332 219.335 104.401 242.341 128.529 242.341Z" fill="#FFEBB6"/>
<path d="M77.0378 458.007C97.3907 458.007 113.875 456.205 113.875 454.008C113.875 451.811 97.3907 450.009 77.0378 450.009C56.7035 450.009 40.2191 451.811 40.2191 454.008C40.2191 456.205 56.7035 458.007 77.0378 458.007Z" fill="#BBBBBB"/>
<path d="M182.86 472.092C182.86 472.092 208.989 376.201 194.598 317.182C180.188 258.184 168.787 260.491 168.787 260.491C168.787 260.491 149.368 253.57 125.24 273.851C101.13 294.132 94.7575 300.13 81.0207 291.825C67.2838 283.541 64.611 270.621 31.1193 272.005C31.1193 272.005 48.8559 258.645 66.2933 270.621C83.712 282.618 95.4304 289.056 113.185 270.621C130.941 252.185 155.387 228.213 179.178 242.495C179.178 242.495 161.76 218.984 156.059 218.984C150.378 218.984 123.577 215.292 114.868 202.855C114.868 202.855 102.458 190.88 80.3479 220.368C58.2381 249.878 63.602 249.878 43.8471 247.571C24.0735 245.264 8.67313 231.904 8.67313 231.904C8.67313 231.904 31.7734 244.802 45.8467 238.364C59.92 231.904 71.9747 207.47 84.3659 199.164C96.7758 190.88 104.14 179.806 120.886 191.781C120.886 191.781 113.858 152.142 100.458 155.372C87.0574 158.602 106.812 146.143 106.812 146.143C106.812 146.143 103.13 78.8395 96.1032 74.2251C89.0572 69.6108 93.4119 57.6352 80.3479 55.328C80.3479 55.328 96.4396 52.5596 99.4486 67.787C102.458 82.9924 123.24 165.062 123.24 165.062C123.24 165.062 135.968 200.087 150.041 191.781C164.096 183.497 144.677 136.936 144.677 136.936L120.549 121.709C120.549 121.709 138.641 120.786 149.705 135.091C160.75 149.373 161.423 195.473 161.423 195.473C161.423 195.473 189.234 201.01 195.925 221.752C195.925 221.752 200.28 203.317 191.907 192.243C189.813 189.496 187.608 184.684 185.496 179.015C177.384 157.371 174.637 132.674 177.197 108.569C178.431 96.7915 179.197 85.2554 177.833 82.5307C174.824 76.5321 162.096 39.6614 161.087 29.9713C160.078 20.3032 162.096 0 162.096 0C162.096 0 162.433 24.8955 166.451 32.7399C170.469 40.5843 181.851 79.3009 181.851 79.3009C181.851 79.3009 181.851 128.169 191.234 152.142C200.616 176.114 218.707 202.856 217.698 220.368V230.52C217.698 230.52 237.808 204.24 236.463 195.473C235.117 186.727 233.454 165.985 220.726 153.526C207.998 141.089 199.607 121.247 208.652 92.6823C217.698 64.0953 217.698 59.0197 217.698 59.0197L211.68 94.5063C211.68 94.5063 208.316 126.323 217.698 137.398C227.08 148.45 239.472 168.731 239.472 168.731L236.799 102.351L245.508 128.63C245.508 128.63 264.273 95.4292 286.382 84.3767C308.492 73.3022 322.229 34.5857 322.229 34.5857L340.975 14.3045L325.575 39.6614C325.575 39.6614 320.883 69.6108 294.419 90.8368C267.955 112.041 250.872 143.374 249.863 162.754C248.854 182.113 247.863 199.164 247.863 199.164C247.863 199.164 297.428 196.857 308.492 166.886C319.538 136.936 320.547 77.4552 331.275 67.787C341.984 58.0969 362.094 46.0996 362.094 46.0996L339.648 71.4565C339.648 71.4565 334.957 92.2209 335.966 106.965C336.957 121.709 328.584 135.552 328.584 135.552L322.229 161.37L315.183 183.497C315.183 183.497 344.003 184.42 359.066 207.931C374.149 231.443 411.659 238.364 411.659 238.364L390.558 246.187C390.558 246.187 370.467 236.98 351.366 219.907C332.265 202.856 334.284 187.65 310.492 204.701C286.719 221.752 254.218 236.057 254.218 236.057C254.218 236.057 272.982 224.06 306.81 253.108C340.657 282.157 290.064 248.032 274.982 259.107C259.918 270.159 252.872 256.338 246.854 284.002C240.817 311.666 229.772 387.254 242.499 429.684L255.227 472.092H182.86Z" fill="black"/>
<path opacity="0.1" d="M158.712 160.47C158.899 160.932 159.086 161.393 159.291 161.832C165.291 174.95 174.355 188.903 181.139 201.714C175.663 189.035 166.132 174.533 158.712 160.47Z" fill="black"/>
<path opacity="0.1" d="M184.615 63.4141C185.493 59.9424 185.493 58.9753 185.493 58.9753L184.615 63.4141Z" fill="black"/>
<path opacity="0.1" d="M39.0803 69.7206C39.5289 70.5996 40.0709 71.4126 40.7063 72.1377C40.2391 71.2588 39.6971 70.4458 39.0803 69.7206Z" fill="black"/>
<path opacity="0.1" d="M175.626 18.7869C175.458 17.864 175.233 16.9849 174.916 16.1279C174.916 16.1279 175.215 17.1389 175.626 18.7869Z" fill="black"/>
<path d="M134.604 452.118C137.407 464.269 146.976 471.784 146.976 471.784C146.976 471.784 152.023 459.611 149.219 447.482C146.434 435.331 136.865 427.816 136.865 427.816C136.865 427.816 131.819 439.967 134.604 452.118Z" fill="#53CB6D"/>
<path d="M138.715 449.504C146.378 458.293 147.313 471.762 147.313 471.762C147.313 471.762 135.819 471.037 128.156 462.27C120.493 453.481 119.559 439.989 119.559 439.989C119.559 439.989 131.053 440.736 138.715 449.504Z" fill="#53CB6D"/>
<path d="M113.296 120.259C112.642 132.805 104.549 142.429 104.549 142.429C104.549 142.429 97.5221 131.707 98.1949 119.16C98.8678 106.591 106.961 96.967 106.961 96.967C106.961 96.967 113.969 107.712 113.296 120.259Z" fill="#53CB6D"/>
<path d="M57.2266 79.3229C66.2724 86.0247 69.5804 98.989 69.5804 98.989C69.5804 98.989 58.1983 101.076 49.1525 94.3745C40.1067 87.6727 36.7989 74.6866 36.7989 74.6866C36.7989 74.6866 48.1808 72.5991 57.2266 79.3229Z" fill="#53CB6D"/>
<path d="M20.4275 193.957C29.4733 200.659 32.7814 213.623 32.7814 213.623C32.7814 213.623 21.3996 215.71 12.3538 209.009C3.30804 202.307 0 189.343 0 189.343C0 189.343 11.3818 187.255 20.4275 193.957Z" fill="#53CB6D"/>
<path d="M75.8979 263.567C84.9436 270.269 88.2517 283.233 88.2517 283.233C88.2517 283.233 76.8884 285.321 67.824 278.619C58.7782 271.917 55.4702 258.953 55.4702 258.953C55.4702 258.953 66.8521 256.865 75.8979 263.567Z" fill="#53CB6D"/>
<path d="M192.725 63.2612C189.997 75.4343 180.465 83.015 180.465 83.015C180.465 83.015 175.362 70.8856 178.091 58.7345C180.82 46.5614 190.352 38.9807 190.352 38.9807C190.352 38.9807 195.454 51.1101 192.725 63.2612Z" fill="#53CB6D"/>
<path d="M278.83 72.7529C275.634 84.7502 265.803 91.8036 265.803 91.8036C265.803 91.8036 261.187 79.4106 264.402 67.4132C267.598 55.4159 277.428 48.3408 277.428 48.3408C277.428 48.3408 282.045 60.7556 278.83 72.7529Z" fill="#53CB6D"/>
<path d="M371.906 201.735C366.094 212.282 355.029 216.017 355.029 216.017C355.029 216.017 353.385 202.614 359.197 192.067C365.01 181.498 376.074 177.762 376.074 177.762C376.074 177.762 377.719 191.165 371.906 201.735Z" fill="#53CB6D"/>
<path d="M225.789 292.682C225.789 292.682 224.854 296.703 226.723 298.175C228.592 299.647 229.209 306.591 229.209 306.591L225.49 318.654L215.528 320.851L211.79 312.435V299.999C211.79 299.999 213.043 293.78 212.725 291.956C212.407 290.133 225.789 292.682 225.789 292.682Z" fill="#FFB9B9"/>
<path opacity="0.2" d="M225.789 292.682C225.789 292.682 224.854 296.703 226.723 298.175C228.592 299.647 229.209 306.591 229.209 306.591L225.49 318.654L215.528 320.851L211.79 312.435V299.999C211.79 299.999 213.043 293.78 212.725 291.956C212.407 290.133 225.789 292.682 225.789 292.682Z" fill="#FFB6B6"/>
<path d="M235.751 361.831L243.843 363.655C243.843 363.655 244.46 374.268 243.843 376.839C243.226 379.387 242.591 382.31 243.226 383.057C243.843 383.782 240.423 402.437 240.722 403.536C241.04 404.635 241.656 407.93 241.357 410.128C241.04 412.325 240.105 411.578 240.722 413.775C241.357 415.973 241.974 416.346 241.357 417.796C240.722 419.269 237.619 454.755 236.685 455.107C235.751 455.48 227.359 455.854 227.359 455.107C227.359 454.382 230.144 448.888 229.209 447.438C228.293 445.966 229.527 421.092 229.527 419.994C229.527 418.895 231.396 417.071 230.461 416.346C229.527 415.599 228.91 414.874 229.209 413.775C229.527 412.677 230.144 412.325 229.527 411.226C228.91 410.128 228.91 388.177 226.723 387.43C226.723 387.43 223.92 403.536 224.854 407.557C225.789 411.578 224.555 413.05 224.555 413.05L228.91 417.445L222.986 430.607L216.762 422.191C216.762 422.191 216.762 419.994 215.528 419.62C214.276 419.269 213.659 418.895 213.659 417.796C213.659 416.698 211.473 409.754 211.473 409.754C211.473 409.754 205.249 386.704 208.37 374.993C211.473 363.303 212.688 363.677 212.688 363.677L235.751 361.831Z" fill="black"/>
<path d="M240.724 437.55L244.163 441.945L242.911 454.03H240.107L235.752 442.67L240.724 437.55Z" fill="#FFB9B9"/>
<path d="M242.909 445.614C242.909 445.614 241.656 448.888 240.722 448.163C239.806 447.438 239.488 446.339 238.087 446.339C236.685 446.339 235.433 446.713 235.751 447.438C236.068 448.163 239.806 456.205 239.806 456.205C240.348 457.59 240.629 459.084 240.629 460.6C240.629 462.116 240.348 463.61 239.806 464.995C237.937 469.741 244.778 472.312 246.03 467.192C247.263 462.072 247.581 456.205 247.263 454.03C246.946 451.833 248.815 440.473 248.815 440.473C248.815 440.473 243.787 437.77 242.254 437.66C242.254 437.66 243.525 444.142 242.909 445.614Z" fill="white"/>
<path d="M234.498 453.657L235.751 458.051C235.751 458.051 235.751 462.424 237.003 464.621C238.236 466.818 239.488 471.587 234.498 471.938C229.527 472.312 227.359 470.114 227.359 470.114C227.359 470.114 228.293 467.192 227.359 466.093C226.424 464.995 227.359 462.797 227.359 462.797L228.275 454.03L234.498 453.657Z" fill="white"/>
<path d="M226.107 417.071H228.91L242.909 438.649C242.909 438.649 240.423 445.614 236.685 446.339C236.685 446.339 236.068 445.966 233.265 443.769C230.461 441.571 222.986 430.607 222.986 430.607L222.07 424.388L226.107 417.071Z" fill="black"/>
<path d="M219.266 297.45C224.761 297.45 229.209 292.198 229.209 285.738C229.209 279.278 224.761 274.026 219.266 274.026C213.753 274.026 209.305 279.278 209.305 285.738C209.305 292.198 213.753 297.45 219.266 297.45Z" fill="#FFB6B6"/>
<path d="M231.396 300.746L228.293 299.274C228.293 299.274 227.976 312.084 222.07 312.084C216.145 312.084 209.921 310.238 209.921 306.591C209.921 302.921 204.95 313.183 204.95 313.183C204.95 313.183 209.622 349.768 209.305 350.119C208.987 350.493 212.725 369.873 212.725 369.873C212.725 369.873 228.592 370.62 233.882 368.049C239.171 365.478 240.722 360.732 240.722 360.732L238.554 328.542L234.199 303.668L231.396 300.746Z" fill="#FF8000"/>
<path d="M226.107 297.45C226.107 297.45 227.359 295.978 229.209 297.45C231.078 298.9 242.591 302.196 242.591 303.295V317.204C242.591 317.204 242.909 319.401 241.974 320.851C241.04 322.323 238.872 327.817 240.105 330.365C241.357 332.936 246.03 362.556 245.095 366.226C244.161 369.873 241.656 373.169 241.656 373.169C241.656 373.169 228.293 339.88 228.293 330.365C228.293 320.851 228.406 309.183 228.406 309.183L226.107 297.45Z" fill="white"/>
<path d="M239.808 303.668H242.593C242.593 303.668 253.171 327.443 253.171 332.189C253.171 336.957 246.331 363.303 245.714 363.655C245.097 364.028 243.228 359.634 243.228 359.634L241.658 345C241.658 345 244.779 336.21 243.845 334.76C242.911 333.288 238.238 321.95 238.238 321.95L239.808 303.668Z" fill="white"/>
<path d="M212.256 297.45C212.256 297.45 208.686 300.372 208.051 301.471C207.434 302.57 198.108 308.788 197.79 310.238C197.472 311.71 204.948 324.147 204.948 324.147C204.948 324.147 208.051 344.626 208.051 346.098C208.051 347.57 209.305 372.444 209.305 372.444C209.305 372.444 222.068 376.839 222.068 374.268C222.068 371.697 222.369 335.134 220.5 327.07C218.631 319.027 212.256 297.45 212.256 297.45Z" fill="white"/>
<path d="M214.276 373.169C214.276 373.169 224.855 390 219.266 389.627C213.659 389.275 209.922 374.993 209.922 374.993L214.276 373.169Z" fill="#FFB9B9"/>
<path d="M201.528 309.139L197.79 310.238C197.79 310.238 194.669 342.451 196.538 346.823C198.407 351.218 208.368 379.761 208.368 378.662C208.368 377.564 217.134 375.608 216.797 374.575C216.461 373.543 214.592 369.148 213.975 367.676C213.34 366.226 212.405 364.38 212.723 362.556C213.041 360.732 209.303 352.91 209.303 352.91C209.303 352.91 208.368 348.295 208.051 346.098C207.752 343.901 204.948 319.752 204.948 319.752L201.528 309.139Z" fill="white"/>
<path d="M229.024 276.663C228.837 275.982 228.426 275.411 227.903 275.037C227.921 274.312 227.847 273.587 227.66 272.906C227.043 270.862 225.567 270.994 224.184 270.093C223.585 269.698 223.623 269.368 223.305 268.709C222.894 267.874 222.277 267.171 221.53 266.709C220.689 266.006 219.698 265.545 218.651 265.369C216.446 265.193 214.764 267.5 212.652 268.248C211.718 268.555 210.708 268.577 209.774 268.885C208.839 269.192 207.905 269.917 207.774 270.994C207.699 271.5 207.811 272.005 207.755 272.488C207.625 273.477 206.84 274.158 206.316 274.971C205.176 276.751 205.307 279.278 206.223 281.212C206.428 281.607 206.634 282.003 206.896 282.354C206.97 283.277 207.213 284.178 207.587 284.991C208.503 286.925 210.092 288.375 211.755 289.583C211.605 288.946 211.531 288.287 211.512 287.628C211.475 287.408 211.512 287.166 211.587 286.969C211.755 286.551 212.241 286.441 212.615 286.2C212.97 285.914 213.269 285.54 213.456 285.101C213.643 284.661 213.736 284.156 213.717 283.673C213.736 282.684 213.549 281.717 213.643 280.728C213.643 280.509 213.699 280.289 213.773 280.091C213.867 279.871 213.979 279.696 214.129 279.564C214.428 279.366 214.745 279.3 215.063 279.3C216.652 279.234 218.296 279.212 219.679 278.377C220.128 278.048 220.614 277.784 221.118 277.586C222.296 277.235 223.511 278.157 224.184 279.278C224.875 280.399 225.211 281.739 225.828 282.882C226.464 284.046 227.548 285.079 228.763 284.947C228.837 284.947 228.893 284.925 228.968 284.903C229.024 284.859 229.08 284.815 229.118 284.771C229.174 284.661 229.192 284.53 229.192 284.42L229.267 279.278C229.323 278.399 229.23 277.52 229.024 276.663Z" fill="#FF8000"/>
<path d="M346.806 488.748C380.615 488.748 408.014 486.462 408.014 483.628C408.014 480.793 380.615 478.508 346.806 478.508C312.996 478.508 285.579 480.793 285.579 483.628C285.579 486.462 312.996 488.748 346.806 488.748Z" fill="#BBBBBB"/>
<path d="M325.369 471.609C325.369 471.609 320.155 476.794 317.389 476.465C314.641 476.135 309.427 476.135 311.613 479.695C313.819 483.254 322.902 485.188 326.752 485.518C330.602 485.847 339.125 486.155 338.583 484.221C338.022 482.287 337.48 473.235 335.274 472.575C333.069 471.938 325.369 471.609 325.369 471.609Z" fill="white"/>
<path d="M355.364 466.533C355.364 466.533 351.514 473.169 348.785 473.718C346.075 474.289 341.029 475.937 343.963 478.662C346.898 481.387 356.093 480.398 359.868 479.497C363.662 478.596 371.942 476.201 370.97 474.509C369.998 472.817 367.4 464.27 365.12 464.335C362.858 464.401 355.364 466.533 355.364 466.533Z" fill="white"/>
<path d="M322.302 371.631C322.302 371.631 318.77 400.13 319.592 405.316C320.414 410.479 320.975 418.565 320.975 418.565C320.975 418.565 320.414 425.355 320.975 428.607C321.517 431.837 324.825 462.556 324.825 463.193C324.825 463.852 324.264 465.786 324.825 467.412C325.367 469.016 326.47 467.741 324.825 470.312C323.162 472.905 324.264 473.542 324.545 473.542C324.825 473.542 335.553 474.839 336.095 473.542C336.656 472.268 335.815 471.938 336.095 470.312C336.375 468.708 336.656 468.378 337.198 468.049C337.74 467.741 338.842 468.378 338.02 466.752C337.198 465.148 335.273 463.193 335.815 462.226C336.375 461.259 335.553 454.14 335.553 454.14C335.553 454.14 334.992 438.297 334.731 428.607C334.45 418.895 337.198 408.875 337.198 408.875C337.534 416.808 340.057 424.41 344.356 430.541C351.495 440.561 355.084 459.326 355.084 459.326C355.084 459.326 356.728 462.226 355.906 464.819C355.084 467.412 352.598 465.786 355.084 467.412C357.551 469.016 366.073 466.752 366.914 465.786C367.736 464.819 365.811 463.522 366.353 460.93C366.914 458.359 369.101 458.996 367.176 457.7C365.251 456.403 364.709 456.733 364.709 455.436C364.709 454.14 359.756 426.014 352.056 417.928L351.495 388.506C351.495 388.506 358.373 367.808 351.233 365.852C344.075 363.918 322.302 371.631 322.302 371.631Z" fill="black"/>
<path d="M327.29 295.033C327.29 295.033 331.963 308.612 330.879 310.546C329.776 312.501 344.354 304.086 344.354 304.086C344.354 304.086 339.682 290.506 339.682 288.88C339.682 287.276 327.29 295.033 327.29 295.033Z" fill="#FFB6B6"/>
<path d="M330.731 298.417C336.357 298.417 340.917 293.077 340.917 286.463C340.917 279.849 336.357 274.488 330.731 274.488C325.105 274.488 320.564 279.849 320.564 286.463C320.564 293.077 325.105 298.417 330.731 298.417Z" fill="#FFB6B6"/>
<path d="M344.356 298.592C344.356 298.592 337.198 297.626 333.628 302.789C330.04 307.975 329.498 309.271 329.498 309.271C329.498 309.271 320.975 325.422 322.62 333.508C323.031 334.255 323.386 335.002 323.723 335.771C324.265 337.067 324.265 355.195 323.723 358.096C323.162 360.996 322.62 361.985 323.162 366.182C323.722 370.378 318.77 377.168 324.545 378.465C330.32 379.761 334.731 378.794 336.656 375.894C338.581 372.971 336.917 371.038 342.973 371.038C346.673 370.95 350.224 369.214 352.878 366.182C352.878 366.182 349.85 362.292 350.953 361.655C352.056 360.996 350.953 359.392 350.411 357.766C349.851 356.162 349.851 354.865 350.673 354.865C351.495 354.865 350.953 354.206 350.411 352.602C349.851 350.976 360.036 323.158 353.981 315.072C347.925 307.008 344.898 302.46 344.898 302.46C344.898 302.46 346 297.626 344.356 298.592Z" fill="#FF8000"/>
<path d="M329.647 329.311V343.549L320.844 377.827C320.844 377.827 315.069 395.604 320.844 395.604C326.619 395.604 326.32 378.64 326.32 378.64L338.73 352.932C338.73 352.932 343.683 332.541 343.122 330.937C342.58 329.311 329.647 329.311 329.647 329.311Z" fill="#FFB6B6"/>
<path d="M334.318 308.283C334.318 308.283 326.075 312.172 328.262 322.521C330.467 332.87 328.262 332.541 328.262 332.541C328.262 332.541 339.551 331.244 343.12 334.167L343.943 330.278C343.943 330.278 347.251 307.975 334.318 308.283Z" fill="#FF8000"/>
<path d="M328.227 277.476C327.591 277.74 326.918 277.828 326.245 277.696C325.591 277.564 324.956 277.256 324.414 276.773C323.891 276.29 323.536 275.587 323.367 274.817C323.218 274.048 323.274 273.235 323.554 272.51C324.077 271.302 325.199 270.643 326.283 270.137C328.675 269.039 331.18 268.379 333.74 268.16C334.955 268.05 336.226 268.072 337.31 268.731C337.852 269.061 338.319 269.522 338.842 269.852C339.833 270.467 340.973 270.599 342.02 270.994C343.104 271.412 344.094 272.093 344.935 273.016C345.776 273.917 346.43 275.015 346.879 276.246C347.159 277.081 347.365 277.96 347.477 278.861C347.795 281.3 347.57 283.804 346.841 286.112C345.664 289.781 343.197 292.989 343.066 296.922C341.552 295.626 341.01 293.319 339.795 291.649C338.898 290.418 337.665 289.583 336.319 289.276C335.945 289.254 335.59 289.1 335.291 288.836C335.067 288.551 334.936 288.177 334.899 287.804L333.871 282.069C333.665 280.926 333.404 279.652 332.581 278.948C332.077 278.553 331.497 278.311 330.899 278.245C329.479 277.96 328.058 277.806 326.601 277.784" fill="black"/>
</svg>
